<?xml version="1.0" standalone="no"?>
<svg viewBox="0 0 200 200" xmlns="http://www.w3.org/2000/svg">
  <path fill="#FF0066" d="M49.8,-76.4C64.8,-67.8,77.5,-54.5,84.4,-38.7C91.3,-23,92.5,-4.8,89.8,12.8C87.2,30.4,80.7,47.4,69.4,59.9C58.2,72.3,42,80.3,25.3,84.4C8.6,88.5,-8.8,88.7,-25.4,84.7C-41.9,80.6,-57.7,72.1,-69.6,59.6C-81.5,47.2,-89.6,30.6,-92,13.2C-94.5,-4.1,-91.4,-22.2,-83.5,-37.6C-75.6,-52.9,-62.9,-65.5,-48.2,-74.2C-33.4,-83,-16.7,-87.9,0.3,-88.4C17.4,-88.9,34.8,-85,49.8,-76.4Z" transform="translate(100 100)" />
</svg>
