<?xml version="1.0" standalone="no"?>
<svg viewBox="0 0 200 200" xmlns="http://www.w3.org/2000/svg">
  <path fill="#FF0066" d="M39.7,-62.4C48.9,-55.9,51.9,-40.5,59.3,-26.4C66.6,-12.4,78.4,0.3,79.2,13.1C80.1,26,70.1,39,57.3,44.6C44.6,50.2,29.1,48.3,17.9,43.6C6.8,38.9,-0.1,31.4,-9.8,30.1C-19.5,28.8,-32.1,33.7,-37.7,30.7C-43.3,27.7,-41.9,16.8,-39.8,7.9C-37.7,-1,-34.8,-7.8,-30.9,-13.2C-27,-18.6,-22,-22.6,-16.7,-30.8C-11.4,-39.1,-5.7,-51.7,4.8,-59.1C15.3,-66.6,30.6,-69,39.7,-62.4Z" transform="translate(100 100)" />
</svg>
