<?xml version="1.0" standalone="no"?>
<svg viewBox="0 0 200 200" xmlns="http://www.w3.org/2000/svg">
  <path fill="#52b788" d="M40.3,-63.7C50.6,-56.2,56.2,-42.2,62.1,-28.5C68.1,-14.9,74.5,-1.6,74.2,11.8C74,25.2,67.2,38.7,57.3,49.2C47.5,59.7,34.7,67.1,22.1,67C9.5,66.9,-2.8,59.3,-17.4,56.4C-32.1,53.5,-49,55.3,-62,48.9C-75,42.5,-84.1,28,-85.4,12.8C-86.7,-2.3,-80.2,-18,-69.4,-27.5C-58.6,-37.1,-43.4,-40.5,-31.1,-47.1C-18.8,-53.7,-9.4,-63.6,2.8,-68C15,-72.4,30.1,-71.3,40.3,-63.7Z" transform="translate(100 100)" />
</svg>
