<?xml version="1.0" standalone="no"?>
<svg viewBox="0 0 200 200" xmlns="http://www.w3.org/2000/svg">
  <path fill="#52b788" d="M46.1,-65.8C60.4,-62.6,73.1,-50.9,81.4,-36.2C89.6,-21.5,93.5,-3.7,89.4,11.7C85.4,27.2,73.6,40.3,60.8,49.7C48.1,59.1,34.3,64.7,19.7,70.6C5.1,76.5,-10.5,82.7,-22.6,78.5C-34.7,74.3,-43.4,59.7,-53.5,46.9C-63.7,34.2,-75.3,23.4,-81.1,9.3C-86.8,-4.8,-86.5,-22.1,-80,-36.6C-73.4,-51,-60.6,-62.6,-46.2,-65.8C-31.8,-68.9,-15.9,-63.6,0,-63.6C15.9,-63.7,31.8,-69,46.1,-65.8Z" transform="translate(100 100)" />
</svg>
