<?xml version="1.0" standalone="no"?>
<svg viewBox="0 0 200 200" xmlns="http://www.w3.org/2000/svg">
  <path fill="#76c893" d="M41.9,-62.6C53.4,-57.9,61.2,-44.7,63.2,-31.4C65.2,-18.2,61.6,-4.9,62.5,11.1C63.4,27.1,69,45.8,61.9,53C54.7,60.2,34.9,55.9,18.6,58.3C2.3,60.8,-10.5,70.1,-23.1,70.3C-35.8,70.4,-48.2,61.5,-53,49.5C-57.7,37.5,-54.8,22.5,-54.5,9.3C-54.2,-4,-56.5,-15.4,-55.8,-29.1C-55.1,-42.7,-51.5,-58.5,-41.7,-64C-31.9,-69.5,-15.9,-64.6,-0.4,-64C15.2,-63.5,30.4,-67.3,41.9,-62.6Z" transform="translate(100 100)" />
</svg>
