<?xml version="1.0" standalone="no"?>
<svg viewBox="0 0 200 200" xmlns="http://www.w3.org/2000/svg">
  <path fill="#FF0066" d="M40.6,-74.6C49.7,-65,52.1,-48.3,58.2,-34.6C64.2,-21,73.7,-10.5,78.2,2.6C82.7,15.7,82.2,31.4,73.6,40.6C65,49.8,48.5,52.6,34.9,56.2C21.3,59.9,10.6,64.5,-2.1,68.1C-14.8,71.7,-29.6,74.2,-40,68.7C-50.4,63.2,-56.4,49.6,-59.7,36.8C-63,24,-63.6,12,-62.4,0.7C-61.3,-10.7,-58.5,-21.4,-54.7,-33.4C-50.9,-45.3,-46.2,-58.6,-36.9,-68C-27.6,-77.5,-13.8,-83.2,1,-84.8C15.7,-86.5,31.5,-84.1,40.6,-74.6Z" transform="translate(100 100)" />
</svg>
