<?xml version="1.0" encoding="UTF-8" standalone="no"?>
<svg
   xmlns:dc="http://purl.org/dc/elements/1.1/"
   xmlns:cc="http://creativecommons.org/ns#"
   xmlns:rdf="http://www.w3.org/1999/02/22-rdf-syntax-ns#"
   xmlns:svg="http://www.w3.org/2000/svg"
   xmlns="http://www.w3.org/2000/svg"
   xmlns:sodipodi="http://sodipodi.sourceforge.net/DTD/sodipodi-0.dtd"
   xmlns:inkscape="http://www.inkscape.org/namespaces/inkscape"
   version="1.1"
   id="svg2"
   xml:space="preserve"
   width="3680"
   height="2453.3333"
   viewBox="0 0 3680 2453.3333"
   sodipodi:docname="Hands of florist taking care about plants in pots.eps"><metadata
     id="metadata8"><rdf:RDF><cc:Work
         rdf:about=""><dc:format>image/svg+xml</dc:format><dc:type
           rdf:resource="http://purl.org/dc/dcmitype/StillImage" /></cc:Work></rdf:RDF></metadata><defs
     id="defs6" /><sodipodi:namedview
     pagecolor="#ffffff"
     bordercolor="#666666"
     borderopacity="1"
     objecttolerance="10"
     gridtolerance="10"
     guidetolerance="10"
     inkscape:pageopacity="0"
     inkscape:pageshadow="2"
     inkscape:window-width="640"
     inkscape:window-height="480"
     id="namedview4" /><g
     id="g10"
     inkscape:groupmode="layer"
     inkscape:label="ink_ext_XXXXXX"
     transform="matrix(1.3333333,0,0,-1.3333333,0,2453.3333)"><g
       id="g12"
       transform="scale(0.1)"><path
         d="M 27600,0 H 0 V 18400 H 27600 V 0"
         style="fill:#ffffff;fill-opacity:1;fill-rule:nonzero;stroke:none"
         id="path14" /><path
         d="m 26129.1,4784 c -79.6,-236.8 -188.2,-476.6 -330.2,-719 -474.7,-809.9 -1269.8,-1484.6 -2220.1,-1896.5 -960.3,-416.4 -2079,-564.3 -3185.5,-312.1 -2453.7,559.4 -5413.2,58.8 -7602.5,358.4 -2023.1,276.6 -4115.28,-99.3 -6203.39,-248.6 -2011.12,-143.9 -3825.73,189.5 -4737.04,1358.5 -644.58,827 -837.09,2072.4 -327.21,3862.9 0,0 99.6,215.6 235.54,559.8 368.79,934.01 1004.89,2814.8 643.05,3903.6 -290.09,872.9 -311.85,1641.9 -84.52,2291 67.93,193.8 157.98,377 269.88,549 537.17,826.1 1575.07,1395.9 3057.51,1662.2 2332.13,418.8 2677.55,-641.1 7146.18,-68.5 4974.4,637.4 6897.4,1438 9937.3,-167.3 2190.7,-1156.8 1485,-3461.8 1894.5,-5407.7 C 24906.9,9158.39 26914.2,7116 26129.1,4784"
         style="fill:#d2e0ff;fill-opacity:1;fill-rule:nonzero;stroke:none"
         id="path16" /><path
         d="m 7956.57,5547.4 c 0,1506.3 1221.13,2727.4 2727.43,2727.4 1506.3,0 2727.5,-1221.1 2727.5,-2727.4 0,-1506.3 -1221.2,-2727.5 -2727.5,-2727.5 -1506.3,0 -2727.43,1221.2 -2727.43,2727.5"
         style="fill:#f99746;fill-opacity:1;fill-rule:nonzero;stroke:none"
         id="path18" /><path
         d="m 8181.82,5547.4 c 0,1381.9 1120.27,2502.2 2502.18,2502.2 1381.9,0 2502.2,-1120.3 2502.2,-2502.2 0,-1381.9 -1120.3,-2502.2 -2502.2,-2502.2 -1381.91,0 -2502.18,1120.3 -2502.18,2502.2"
         style="fill:#163560;fill-opacity:1;fill-rule:nonzero;stroke:none"
         id="path20" /><path
         d="m 11031.8,5564 c 0,0 -80.8,-56.2 -72.8,-125.9 8,-69.7 147.1,-57.8 72.8,125.9"
         style="fill:#dde7fe;fill-opacity:1;fill-rule:nonzero;stroke:none"
         id="path22" /><path
         d="m 9539.18,7231.8 c 0,0 -77.22,-60.9 -65.02,-130 12.19,-69.1 150.36,-48.8 65.02,130"
         style="fill:#dde7fe;fill-opacity:1;fill-rule:nonzero;stroke:none"
         id="path24" /><path
         d="m 10440.1,7331.3 c 0,0 -83.7,51.6 -144.4,16.3 -60.7,-35.2 5.9,-157.9 144.4,-16.3"
         style="fill:#dde7fe;fill-opacity:1;fill-rule:nonzero;stroke:none"
         id="path26" /><path
         d="m 12662.9,5564 c 0,0 -80.8,-56.2 -72.8,-125.9 8,-69.7 147.1,-57.8 72.8,125.9"
         style="fill:#dde7fe;fill-opacity:1;fill-rule:nonzero;stroke:none"
         id="path28" /><path
         d="m 9560.65,5547.3 c 0,0 2.56,-98.3 65.18,-129.9 62.63,-31.6 129.11,91.2 -65.18,129.9"
         style="fill:#dde7fe;fill-opacity:1;fill-rule:nonzero;stroke:none"
         id="path30" /><path
         d="m 10440.8,4667.1 c 0,0 2.6,-98.3 65.2,-129.9 62.6,-31.6 129.1,91.2 -65.2,129.9"
         style="fill:#dde7fe;fill-opacity:1;fill-rule:nonzero;stroke:none"
         id="path32" /><path
         d="m 12020.7,4605 c 0,0 -79.1,58.5 -142.6,28.6 -63.4,-29.9 -7.6,-157.9 142.6,-28.6"
         style="fill:#dde7fe;fill-opacity:1;fill-rule:nonzero;stroke:none"
         id="path34" /><path
         d="m 12151.8,6321.4 c 0,0 -79.1,58.5 -142.6,28.6 -63.4,-29.9 -7.5,-157.9 142.6,-28.6"
         style="fill:#dde7fe;fill-opacity:1;fill-rule:nonzero;stroke:none"
         id="path36" /><path
         d="m 11176.6,3706.3 c 0,0 -79.1,58.5 -142.6,28.6 -63.4,-29.9 -7.6,-157.9 142.6,-28.6"
         style="fill:#dde7fe;fill-opacity:1;fill-rule:nonzero;stroke:none"
         id="path38" /><path
         d="m 10440.8,6321.4 c 0,0 -79.1,58.5 -142.5,28.6 -63.5,-29.9 -7.6,-157.9 142.5,-28.6"
         style="fill:#dde7fe;fill-opacity:1;fill-rule:nonzero;stroke:none"
         id="path40" /><path
         d="m 9136.93,6218.1 c 0,0 -79.1,58.5 -142.55,28.6 -63.46,-30 -7.58,-157.9 142.55,-28.6"
         style="fill:#dde7fe;fill-opacity:1;fill-rule:nonzero;stroke:none"
         id="path42" /><path
         d="m 9389.45,4541.9 c 0,0 -79.09,58.5 -142.56,28.5 -63.45,-29.9 -7.56,-157.8 142.56,-28.5"
         style="fill:#dde7fe;fill-opacity:1;fill-rule:nonzero;stroke:none"
         id="path44" /><path
         d="m 11241.7,5986.5 c 0,0 -69.1,14.1 -79,-9.9 -9.9,-24 26.8,-45.2 55.1,-35.3 28.2,9.9 35.2,26.8 23.9,45.2"
         style="fill:#0b0755;fill-opacity:1;fill-rule:nonzero;stroke:none"
         id="path46" /><path
         d="m 7886.4,14245.7 c 0,0 -560.07,752.3 -250.85,970 309.2,217.6 250.85,-970 250.85,-970 0,0 47.33,32.2 0,0"
         style="fill:#85b779;fill-opacity:1;fill-rule:nonzero;stroke:none"
         id="path48" /><path
         d="m 8188.66,15065.6 c 327.4,-40.5 -301.83,-820.3 -301.83,-820.3 0,0 -25.56,860.7 301.83,820.3"
         style="fill:#85b779;fill-opacity:1;fill-rule:nonzero;stroke:none"
         id="path50" /><path
         d="m 7496.6,6419.5 c 0,0 132.11,-1426.6 -444.21,-1464.5 -576.33,-38 444.21,1464.5 444.21,1464.5 0,0 -87.36,-4.4 0,0"
         style="fill:#85b779;fill-opacity:1;fill-rule:nonzero;stroke:none"
         id="path52" /><path
         d="m 6450.38,5590.5 c -394.8,313.1 1045.95,829.8 1045.95,829.8 0,0 -651.15,-1142.9 -1045.95,-829.8"
         style="fill:#85b779;fill-opacity:1;fill-rule:nonzero;stroke:none"
         id="path54" /><path
         d="m 21415.8,10028.5 c 0,0 -289,847.7 55.7,955.1 344.8,107.4 -55.7,-955.1 -55.7,-955.1 0,0 52.5,15.4 0,0"
         style="fill:#85b779;fill-opacity:1;fill-rule:nonzero;stroke:none"
         id="path56" /><path
         d="m 21930.4,10685.4 c 285.8,-132.5 -514.3,-657.4 -514.3,-657.4 0,0 228.6,789.9 514.3,657.4"
         style="fill:#85b779;fill-opacity:1;fill-rule:nonzero;stroke:none"
         id="path58" /><path
         d="m 12736.2,8471.11 c 0,0 -289.1,847.76 55.7,955.15 344.7,107.4 -55.7,-955.15 -55.7,-955.15 0,0 52.4,15.45 0,0"
         style="fill:#85b779;fill-opacity:1;fill-rule:nonzero;stroke:none"
         id="path60" /><path
         d="m 13250.8,9128.05 c 285.8,-132.54 -514.3,-657.41 -514.3,-657.41 0,0 228.5,789.95 514.3,657.41"
         style="fill:#85b779;fill-opacity:1;fill-rule:nonzero;stroke:none"
         id="path62" /><path
         d="m 18256,4498.3 c 0,0 415.8,680.1 761.5,607.5 345.6,-72.5 -761.5,-607.5 -761.5,-607.5"
         style="fill:#e6efff;fill-opacity:1;fill-rule:nonzero;stroke:none"
         id="path64" /><path
         d="m 22011.4,2195.6 -42.7,-38.8 c -2409.5,1639.9 -4592.3,2249.7 -4622.2,2257.6 l 15,54.6 c 30.1,-8.2 2227.6,-621.5 4649.9,-2273.4"
         style="fill:#85b779;fill-opacity:1;fill-rule:nonzero;stroke:none"
         id="path66" /><path
         d="m 16742,4127 c 165.2,8 641,283.6 638.8,330.7 -2.3,47.2 -502.6,275.4 -667.7,267.4 -165.2,-8 -292.6,-148.3 -284.6,-313.5 8,-165.2 148.4,-292.6 313.5,-284.6"
         style="fill:#e6efff;fill-opacity:1;fill-rule:nonzero;stroke:none"
         id="path68" /><path
         d="m 16895.1,5010.2 c 41.8,-160 409.4,-569 455,-557 45.7,11.9 166.2,548.4 124.4,708.4 -41.8,160 -205.4,255.8 -365.4,214 -160,-41.8 -255.8,-205.4 -214,-365.4"
         style="fill:#e6efff;fill-opacity:1;fill-rule:nonzero;stroke:none"
         id="path70" /><path
         d="m 17713.8,5110.2 c -133.7,-97.5 -379.9,-589.1 -352.1,-627.3 27.8,-38.1 571.2,46 704.8,143.4 133.7,97.4 163,284.7 65.6,418.3 -97.4,133.6 -284.7,163 -418.3,65.6"
         style="fill:#e6efff;fill-opacity:1;fill-rule:nonzero;stroke:none"
         id="path72" /><path
         d="m 18048.4,4377.2 c -138.4,90.4 -685.5,146.3 -711.3,106.8 -25.8,-39.5 245.5,-517.8 384,-608.2 138.4,-90.4 324,-51.5 414.4,87 90.3,138.5 51.4,324 -87.1,414.4"
         style="fill:#e6efff;fill-opacity:1;fill-rule:nonzero;stroke:none"
         id="path74" /><path
         d="m 17511.3,3762.4 c 31.4,162.3 -123.3,690 -169.7,698.9 -46.3,9 -386.8,-422.8 -418.2,-585.1 -31.5,-162.3 74.6,-319.4 237,-350.9 162.3,-31.4 319.4,74.7 350.9,237.1"
         style="fill:#e6efff;fill-opacity:1;fill-rule:nonzero;stroke:none"
         id="path76" /><path
         d="m 17268.7,4395 c -36.7,40.3 -33.7,102.6 6.6,139.3 40.3,36.6 102.6,33.7 139.3,-6.6 36.6,-40.3 33.7,-102.7 -6.6,-139.3 -40.3,-36.6 -102.7,-33.7 -139.3,6.6"
         style="fill:#163560;fill-opacity:1;fill-rule:nonzero;stroke:none"
         id="path78" /><path
         d="m 19681.1,4038.9 c 54.6,-252 600.4,-913.5 672.3,-897.9 72,15.6 295.1,843.6 240.5,1095.7 -54.6,252 -303.2,412.1 -555.3,357.5 -252,-54.6 -412.1,-303.2 -357.5,-555.3"
         style="fill:#85b779;fill-opacity:1;fill-rule:nonzero;stroke:none"
         id="path80" /><path
         d="m 20871,5894.3 c -475.6,74.1 -1273.8,452.6 -1875.6,851 -375.1,248.3 -902.8,443.4 -1110.2,507.4 -163,50.1 -826.4,188.2 -927.3,300.2 -108.3,120 -41.2,321.5 196.9,419.1 269.4,110.5 654.3,110 1312.9,-52.2 627.7,-154.7 925.9,-83.8 1182.2,38.2 5.9,2.8 11.6,5.6 17.5,8.5 L 20871,5894.3"
         style="fill:#ffb27d;fill-opacity:1;fill-rule:nonzero;stroke:none"
         id="path82" /><path
         d="m 18119.5,8952.27 c 0,0 -421.9,-635.67 -240.4,-715.07 181.6,-79.4 551.5,136.7 703.7,309.6 152.1,172.9 -463.3,405.47 -463.3,405.47"
         style="fill:#e8945b;fill-opacity:1;fill-rule:nonzero;stroke:none"
         id="path84" /><path
         d="m 19858.7,9667.33 c 0,0 -365,-89.2 -592.1,-83.17 -734.4,19.47 -689.5,-121.33 -1112.4,-199.37 -790.7,-145.88 -1386.7,-291.12 -1364.4,-435.06 43.4,-281.26 880.5,-370.06 1329.7,-394.29 769.8,-41.52 1043.9,-318.24 1043.9,-318.24 l 695.3,1430.13"
         style="fill:#ffb27d;fill-opacity:1;fill-rule:nonzero;stroke:none"
         id="path86" /><path
         d="m 16134,6765.1 1210.6,608.7 946.5,148.7 -53,337 -999.2,-157 -1258.2,-632.5 153.3,-304.9"
         style="fill:#6f84dd;fill-opacity:1;fill-rule:nonzero;stroke:none"
         id="path88" /><path
         d="m 17962.2,7668.8 v 0 c 41.5,-255.7 282.5,-429.4 538.2,-387.9 l 5568.8,904 c 255.8,41.5 429.5,282.53 387.9,538.29 v 0 c -41.5,255.76 -282.5,429.44 -538.3,387.92 L 18350.1,8207.1 c -255.8,-41.5 -429.4,-282.5 -387.9,-538.3"
         style="fill:#2b478b;fill-opacity:1;fill-rule:nonzero;stroke:none"
         id="path90" /><path
         d="m 10215.2,6244.1 c 897.5,-867.2 2506.9,-923.4 2506.9,-923.4 l 4572.5,400 c 151.4,12.9 203,208.4 77.8,294.1 l -1315,902.8 -37.1,1060.7 c -4.8,118.9 -107.4,209.4 -225.6,197.7 -739.5,-72.8 -3163.5,-329.6 -4061.6,-624 -1066.3,-349.3 -1517.9,-1307.9 -1517.9,-1307.9"
         style="fill:#8c9df4;fill-opacity:1;fill-rule:nonzero;stroke:none"
         id="path92" /><path
         d="m 10215.2,6244.1 5842.2,673.5 -37.1,1060.7 c -4.8,118.9 -107.4,209.4 -225.6,197.7 -739.5,-72.8 -3163.5,-329.6 -4061.6,-624 -1066.3,-349.3 -1517.9,-1307.9 -1517.9,-1307.9"
         style="fill:#6f84dd;fill-opacity:1;fill-rule:nonzero;stroke:none"
         id="path94" /><path
         d="m 23162.6,4393.6 c 0,0 -525.4,807.3 -1142.7,1110.3 -720.6,353.7 -1604.8,341.9 -2061.7,587.8 -328.8,176.9 -603,453.8 -1275.4,833.8 l 1087.6,568.2 c 0,0 279.2,209.5 -949.7,966.65 -1016.1,626.09 1038,1837.05 3565.5,968.21 297.1,-102.13 841.6,-668.46 1155.2,-1279.46 453.6,-883.7 760.2,-1177.4 1889.1,-2300.1 L 23162.6,4393.6"
         style="fill:#ffb27d;fill-opacity:1;fill-rule:nonzero;stroke:none"
         id="path96" /><path
         d="m 20497.7,8886.15 c -194.5,23.57 -390.2,95.61 -661,195.31 -128.8,47.42 -274.9,101.17 -446.8,159.42 -544.1,184.27 -1214.4,141.4 -1269.1,130.79 l -2.5,12.74 c 55,10.66 729.2,53.87 1275.7,-131.25 172.2,-58.31 318.2,-112.09 447.2,-159.54 270,-99.39 465.1,-171.21 658,-194.6 l -1.5,-12.87"
         style="fill:#ea8f7d;fill-opacity:1;fill-rule:nonzero;stroke:none"
         id="path98" /><path
         d="m 21248.7,9381.88 c -248.1,-0.01 -800,68.48 -1250,124.32 -344,42.69 -641.1,79.57 -688.6,71.49 l -2.2,12.77 c 49.3,8.39 333.1,-26.81 692.4,-71.38 485.9,-60.3 1090.7,-135.37 1301.7,-122.85 l 0.8,-12.95 c -15.9,-0.94 -34,-1.39 -54.1,-1.4"
         style="fill:#ea8f7d;fill-opacity:1;fill-rule:nonzero;stroke:none"
         id="path100" /><path
         d="m 26129.1,4784 c -79.6,-236.8 -188.2,-476.6 -330.2,-719 -474.7,-809.9 -1269.8,-1484.6 -2220.1,-1896.5 -132.6,467.5 -247.1,881.2 -337.8,1212 -141.4,517.2 -224.1,831.4 -224.1,831.4 -6.6,46 -8.7,91.1 -6.6,135.5 2.8,60.1 13.3,118.8 30.6,175.8 3,9.8 6,19.5 9.4,29.1 158.3,459.6 749.4,817.7 1271.1,1053.1 411.5,185.7 779.9,295 858.6,317.6 10.1,2.8 15.4,4.3 15.4,4.3 0,0 43.3,-52.8 123.2,-150.2 103.6,-126.3 268.6,-328 480.1,-587.3 l 0.2,-0.2 c 100.1,-122.9 210.8,-258.7 330.2,-405.6"
         style="fill:#f99746;fill-opacity:1;fill-rule:nonzero;stroke:none"
         id="path102" /><path
         d="m 25798.9,5189.6 c 0,0 -620,-967.3 -1091.7,-1397 l -482.2,192.6 104,-430.7 c 0,0 -775.1,-338.8 -1065,-257.3 l -283.7,1174.7 1998.7,1689.3 819.9,-971.6"
         style="fill:#ed7d2b;fill-opacity:1;fill-rule:nonzero;stroke:none"
         id="path104" /><path
         d="m 24591.1,6694 c 0,0 751.1,-537.7 1458,-1234 0,0 -894.6,-997.2 -1423.9,-1354.2 l -974,689.5 363,-1025.5 c 0,0 -615.8,-409.2 -944.6,-420.6 0,0 -190.3,966.1 -341.5,1591.2 0,0 1656.3,856.6 1863,1753.6"
         style="fill:#eef5ff;fill-opacity:1;fill-rule:nonzero;stroke:none"
         id="path106" /><path
         d="m 24988.6,4823.8 c -17.6,70 -88.6,112.5 -158.6,94.9 -70,-17.6 -112.4,-88.6 -94.8,-158.6 17.5,-70 88.5,-112.4 158.5,-94.8 70,17.6 112.5,88.5 94.9,158.5"
         style="fill:#f99746;fill-opacity:1;fill-rule:nonzero;stroke:none"
         id="path108" /><path
         d="m 10446.9,6823 c 0,0 380.7,-9.5 571.1,-318.1 0,0 142.8,108.4 349,-56.4 206.2,-164.9 63.5,-392.9 -245.9,-421.7 0,0 198.3,-73.3 134.8,-269.1 0,0 349.1,-505.2 -7.9,-695.6 -356.9,-190.3 -1043.3,436.3 -1053,444.2 -9.9,7.9 -279.54,341.1 -287.47,364.9 -7.94,23.8 142.37,372.8 142.37,372.8 l 397,579"
         style="fill:#163560;fill-opacity:1;fill-rule:nonzero;stroke:none"
         id="path110" /><path
         d="m 11655.9,6101.8 c 0,0 19.1,152.3 197.4,185.8 178.3,33.4 222.9,-48.4 222.9,-48.4 0,0 94.8,97.9 250.8,56.4 156.1,-41.5 89.2,-193.8 89.2,-193.8 0,0 117.1,7.4 117.1,-148.6 0,-156.1 -270.3,-203.5 -270.3,-203.5 0,0 -21.9,-71.8 -168.4,-95.8 0,0 1.4,-157.7 -395.8,-96.4 -397.3,61.3 -119.9,284.2 -119.9,284.2 0,0 -42.9,156.7 77,260.1"
         style="fill:#163560;fill-opacity:1;fill-rule:nonzero;stroke:none"
         id="path112" /><path
         d="m 12436,6633.7 c 0,0 24.9,92.2 199.6,105.3 174.6,13.1 265.1,-105.3 265.1,-105.3 0,0 52.9,206.3 283.7,156.1 0,0 255.6,205.4 611.1,93.2 0,0 486.5,99.2 542.6,-72 56.1,-171.1 -574.4,-128.3 -574.4,-128.3 0,0 -55.5,-130.1 -423.4,-161.3 0,0 0,-143.4 -386.7,-112.2 0,0 -623.6,-131 -517.6,224.5"
         style="fill:#163560;fill-opacity:1;fill-rule:nonzero;stroke:none"
         id="path114" /><path
         d="m 13589.6,6468.4 c 0,0 -152.7,31.2 -174.5,-21.8 -21.8,-53 59.3,-99.8 121.6,-78 62.4,21.8 77.7,59.3 52.9,99.8"
         style="fill:#163560;fill-opacity:1;fill-rule:nonzero;stroke:none"
         id="path116" /><path
         d="m 12797.7,6789.8 c 4.3,-9 49.9,-68.8 90.4,-40.8 40.6,28.1 131,121.6 53,146.6 -77.9,24.9 -177.7,-33.8 -143.4,-105.8"
         style="fill:#163560;fill-opacity:1;fill-rule:nonzero;stroke:none"
         id="path118" /><path
         d="m 16051.3,13739.8 c 0,0 401.7,531.1 168.3,1131 0,0 -407.2,-335.9 -168.3,-1131"
         style="fill:#82b378;fill-opacity:1;fill-rule:nonzero;stroke:none"
         id="path120" /><path
         d="m 13842.1,12409 c 0,1317 1067.6,2384.6 2384.6,2384.6 1316.9,0 2384.5,-1067.6 2384.5,-2384.6 0,-1316.9 -1067.6,-2384.5 -2384.5,-2384.5 -1317,0 -2384.6,1067.6 -2384.6,2384.5"
         style="fill:#f99746;fill-opacity:1;fill-rule:nonzero;stroke:none"
         id="path122" /><path
         d="m 14039,12409 c 0,1208.2 979.5,2187.6 2187.7,2187.6 1208.1,0 2187.6,-979.4 2187.6,-2187.6 0,-1208.1 -979.5,-2187.6 -2187.6,-2187.6 -1208.2,0 -2187.7,979.5 -2187.7,2187.6"
         style="fill:#163560;fill-opacity:1;fill-rule:nonzero;stroke:none"
         id="path124" /><path
         d="m 16530.7,12423.5 c 0,0 -70.6,-49.1 -63.6,-110 6.9,-60.9 128.6,-50.6 63.6,110"
         style="fill:#dde7fe;fill-opacity:1;fill-rule:nonzero;stroke:none"
         id="path126" /><path
         d="m 16890.2,13059.7 c 0,0 -67.5,-53.3 -56.8,-113.7 10.6,-60.4 131.4,-42.6 56.8,113.7"
         style="fill:#dde7fe;fill-opacity:1;fill-rule:nonzero;stroke:none"
         id="path128" /><path
         d="m 16477.7,13946.8 c 0,0 -73.3,45 -126.3,14.2 -53.1,-30.7 5.1,-138.1 126.3,-14.2"
         style="fill:#dde7fe;fill-opacity:1;fill-rule:nonzero;stroke:none"
         id="path130" /><path
         d="m 18033.5,12248.4 c 0,0 -70.6,-49.1 -63.6,-110.1 6.9,-60.9 128.6,-50.5 63.6,110.1"
         style="fill:#dde7fe;fill-opacity:1;fill-rule:nonzero;stroke:none"
         id="path132" /><path
         d="m 15111.4,12655.7 c 0,0 2.2,-85.9 57,-113.6 54.7,-27.6 112.9,79.8 -57,113.6"
         style="fill:#dde7fe;fill-opacity:1;fill-rule:nonzero;stroke:none"
         id="path134" /><path
         d="m 16493.4,11730.5 c 0,0 2.2,-85.9 57,-113.6 54.7,-27.6 112.8,79.8 -57,113.6"
         style="fill:#dde7fe;fill-opacity:1;fill-rule:nonzero;stroke:none"
         id="path136" /><path
         d="m 17400.3,12112.5 c 0,0 -69.1,51.2 -124.6,25 -55.5,-26.1 -6.6,-138 124.6,-25"
         style="fill:#dde7fe;fill-opacity:1;fill-rule:nonzero;stroke:none"
         id="path138" /><path
         d="m 17793.1,13085.7 c 0,0 -69.1,51.2 -124.6,25 -55.5,-26.1 -6.6,-138 124.6,-25"
         style="fill:#dde7fe;fill-opacity:1;fill-rule:nonzero;stroke:none"
         id="path140" /><path
         d="m 16509.6,10574 c 0,0 -69.2,51.2 -124.7,25 -55.4,-26.1 -6.6,-138 124.7,-25"
         style="fill:#dde7fe;fill-opacity:1;fill-rule:nonzero;stroke:none"
         id="path142" /><path
         d="m 15875.2,13085.7 c 0,0 -69.1,51.2 -124.6,25 -55.5,-26.1 -6.6,-138 124.6,-25"
         style="fill:#dde7fe;fill-opacity:1;fill-rule:nonzero;stroke:none"
         id="path144" /><path
         d="m 15038.3,12478.8 c 0,0 -69.1,51.1 -124.6,25 -55.5,-26.2 -6.6,-138.1 124.6,-25"
         style="fill:#dde7fe;fill-opacity:1;fill-rule:nonzero;stroke:none"
         id="path146" /><path
         d="m 14650.3,11798.3 c 0,0 -69.2,51.1 -124.7,25 -55.4,-26.2 -6.6,-138.1 124.7,-25"
         style="fill:#dde7fe;fill-opacity:1;fill-rule:nonzero;stroke:none"
         id="path148" /><path
         d="m 16243.6,11747.3 c -103.1,-85.1 -537.7,-179.2 -562,-149.7 -24.3,29.4 150.8,438.1 253.9,523.2 103.2,85.1 255.8,70.4 340.8,-32.7 85.1,-103.2 70.5,-255.7 -32.7,-340.8"
         style="fill:#f3f8ff;fill-opacity:1;fill-rule:nonzero;stroke:none"
         id="path150" /><path
         d="m 15671.5,12192.3 c 62.1,-118.5 64.7,-563.1 30.9,-580.8 -33.8,-17.7 -397.7,237.7 -459.8,356.1 -62,118.5 -16.3,264.8 102.2,326.8 118.4,62 264.7,16.3 326.7,-102.1"
         style="fill:#f3f8ff;fill-opacity:1;fill-rule:nonzero;stroke:none"
         id="path152" /><path
         d="m 15127.5,11806.7 c 132.9,14.4 547.7,-145.7 551.8,-183.7 4.1,-37.9 -366.7,-283.3 -499.6,-297.7 -132.9,-14.4 -252.4,81.6 -266.8,214.6 -14.4,132.9 81.7,252.4 214.6,266.8"
         style="fill:#f3f8ff;fill-opacity:1;fill-rule:nonzero;stroke:none"
         id="path154" /><path
         d="m 15326.1,11186.2 c 33.6,129.4 330.4,460.4 367.4,450.8 36.9,-9.6 134.8,-443.3 101.2,-572.7 -33.6,-129.4 -165.8,-207 -295.2,-173.4 -129.4,33.7 -207,165.9 -173.4,295.3"
         style="fill:#f3f8ff;fill-opacity:1;fill-rule:nonzero;stroke:none"
         id="path156" /><path
         d="m 15981.9,11110.7 c -107.1,80 -301.7,479.8 -278.8,510.3 22.8,30.6 461.4,-42.4 568.5,-122.4 107.2,-80 129.1,-231.7 49.1,-338.8 -80,-107.2 -231.7,-129.1 -338.8,-49.1"
         style="fill:#f3f8ff;fill-opacity:1;fill-rule:nonzero;stroke:none"
         id="path158" /><path
         d="m 15782.8,11621 c 0,44.1 -35.7,79.8 -79.7,79.8 -44.1,0 -79.8,-35.7 -79.8,-79.8 0,-44 35.7,-79.7 79.8,-79.7 44,0 79.7,35.7 79.7,79.7"
         style="fill:#f99746;fill-opacity:1;fill-rule:nonzero;stroke:none"
         id="path160" /><path
         d="m 16068.5,12941.1 27.8,6.9 c -4.2,18.2 -600.3,1930.3 -1610.4,2532 l -19.3,-17.5 c 990.8,-590.3 1596.1,-2502.3 1601.9,-2521.4"
         style="fill:#82b378;fill-opacity:1;fill-rule:nonzero;stroke:none"
         id="path162" /><path
         d="m 16726.2,12301.7 14,24.9 c 12.4,-6.8 1265.8,-865.9 1398.4,-1906.7 l -19.4,-15.3 c -130,1021 -1380.4,1888.6 -1393,1897.1"
         style="fill:#82b378;fill-opacity:1;fill-rule:nonzero;stroke:none"
         id="path164" /><path
         d="m 19967.7,10803.6 21.1,11.4 c -394.5,730.3 -519.1,1914.4 -601.6,2697.9 -23,218.7 -42.9,407.5 -64.1,535.6 -58.7,355.6 -434.1,1050.9 -986,1431.2 -325,224.1 -654.7,304.2 -979.7,238.2 -1010.2,-205.2 -1017,-1109.5 -1016.9,-1118.6 l 23.9,0.1 c 0,8.9 8.2,894.4 997.8,1095 318.4,64.7 641.8,-14.2 961.3,-234.4 546.5,-376.6 917.9,-1064 976,-1415.4 21,-127.4 40.8,-315.9 63.8,-534.2 82.7,-785.4 207.7,-1972.3 604.4,-2706.8"
         style="fill:#82b378;fill-opacity:1;fill-rule:nonzero;stroke:none"
         id="path166" /><path
         d="m 19462.1,12694.8 c 0,0 -385.6,-138.4 -467.3,-525.9 0,0 322.8,36 467.3,525.9"
         style="fill:#82b378;fill-opacity:1;fill-rule:nonzero;stroke:none"
         id="path168" /><path
         d="m 19537,12228.9 c 0,0 -353.7,-206.7 -363,-602.6 0,0 310.7,94.5 363,602.6"
         style="fill:#82b378;fill-opacity:1;fill-rule:nonzero;stroke:none"
         id="path170" /><path
         d="m 19668.4,11640 c 0,0 -244.6,-241.5 -169.9,-565.2 0,0 232.9,141.4 169.9,565.2"
         style="fill:#82b378;fill-opacity:1;fill-rule:nonzero;stroke:none"
         id="path172" /><path
         d="m 19787.4,11212.8 c 0,0 -170.7,-298.3 -11.8,-590 0,0 186.4,198.7 11.8,590"
         style="fill:#82b378;fill-opacity:1;fill-rule:nonzero;stroke:none"
         id="path174" /><path
         d="m 19924.7,10915 c 0,0 -2.8,-343.7 278.5,-520.3 0,0 65.3,264.5 -278.5,520.3"
         style="fill:#82b378;fill-opacity:1;fill-rule:nonzero;stroke:none"
         id="path176" /><path
         d="m 19790,11213.5 c 0,0 169.5,-299 501.5,-311.2 0,0 -75.9,261.7 -501.5,311.2"
         style="fill:#82b378;fill-opacity:1;fill-rule:nonzero;stroke:none"
         id="path178" /><path
         d="m 19668.4,11640 c 0,0 169.5,-299 501.5,-311.1 0,0 -75.9,261.7 -501.5,311.1"
         style="fill:#82b378;fill-opacity:1;fill-rule:nonzero;stroke:none"
         id="path180" /><path
         d="m 19543.7,12240.2 c 0,0 118.3,-322.7 443.9,-388.9 0,0 -32.1,270.5 -443.9,388.9"
         style="fill:#82b378;fill-opacity:1;fill-rule:nonzero;stroke:none"
         id="path182" /><path
         d="m 19462.5,12693.5 c 0,0 137.4,-374.7 515.4,-451.7 0,0 -37.2,314.2 -515.4,451.7"
         style="fill:#82b378;fill-opacity:1;fill-rule:nonzero;stroke:none"
         id="path184" /><path
         d="m 19401.4,13321.6 c 0,0 -403.7,-69.7 -551.2,-437.2 0,0 324.2,-20.3 551.2,437.2"
         style="fill:#82b378;fill-opacity:1;fill-rule:nonzero;stroke:none"
         id="path186" /><path
         d="m 19401.5,13320.3 c 0,0 70.6,-392.8 429.6,-533.9 0,0 17.6,315.9 -429.6,533.9"
         style="fill:#82b378;fill-opacity:1;fill-rule:nonzero;stroke:none"
         id="path188" /><path
         d="m 19306.6,14072.9 c 0,0 -390.9,-122.6 -488.3,-506.4 0,0 324,22.8 488.3,506.4"
         style="fill:#82b378;fill-opacity:1;fill-rule:nonzero;stroke:none"
         id="path190" /><path
         d="m 19306.9,14071.7 c 0,0 122.1,-380 496.7,-472.3 0,0 -24.5,315.5 -496.7,472.3"
         style="fill:#82b378;fill-opacity:1;fill-rule:nonzero;stroke:none"
         id="path192" /><path
         d="m 19016.4,14734.3 c 0,0 -314.1,-263 -257.1,-654.8 0,0 290.5,145.2 257.1,654.8"
         style="fill:#82b378;fill-opacity:1;fill-rule:nonzero;stroke:none"
         id="path194" /><path
         d="m 19017.1,14733.3 c 0,0 258.3,-304.3 639.7,-246 0,0 -143.4,282 -639.7,246"
         style="fill:#82b378;fill-opacity:1;fill-rule:nonzero;stroke:none"
         id="path196" /><path
         d="m 18572.9,15289.1 c 0,0 -300.3,-407.7 -117.2,-861.5 0,0 306.4,259.3 117.2,861.5"
         style="fill:#82b378;fill-opacity:1;fill-rule:nonzero;stroke:none"
         id="path198" /><path
         d="m 18574.1,15288 c 0,0 399.1,-289.8 840,-108.3 0,0 -254.7,296.7 -840,108.3"
         style="fill:#82b378;fill-opacity:1;fill-rule:nonzero;stroke:none"
         id="path200" /><path
         d="m 17966.3,15672.9 c 0,0 -269.5,-501.4 6.4,-977.5 0,0 299.8,337.3 -6.4,977.5"
         style="fill:#82b378;fill-opacity:1;fill-rule:nonzero;stroke:none"
         id="path202" /><path
         d="m 17967.7,15671.9 c 0,0 490.3,-259.1 952.2,13 0,0 -330.6,289.8 -952.2,-13"
         style="fill:#82b378;fill-opacity:1;fill-rule:nonzero;stroke:none"
         id="path204" /><path
         d="m 17273.3,15688 c 0,0 -59.2,-566.2 376.6,-902 0,0 149.6,425.8 -376.6,902"
         style="fill:#82b378;fill-opacity:1;fill-rule:nonzero;stroke:none"
         id="path206" /><path
         d="m 17275,15687.6 c 0,0 552,-53.8 876.2,373.1 0,0 -415.8,142.7 -876.2,-373.1"
         style="fill:#82b378;fill-opacity:1;fill-rule:nonzero;stroke:none"
         id="path208" /><path
         d="m 16454.9,15020.5 c 0,0 427.8,-215.7 807,51.7 0,0 -293.7,250.4 -807,-51.7"
         style="fill:#82b378;fill-opacity:1;fill-rule:nonzero;stroke:none"
         id="path210" /><path
         d="m 16455.7,15021.8 c 0,0 189.2,447.7 -58.9,845.1 0,0 -222.6,-307.3 58.9,-845.1"
         style="fill:#82b378;fill-opacity:1;fill-rule:nonzero;stroke:none"
         id="path212" /><path
         d="m 16243.9,8439.94 -20.5,-12.39 c -429.3,710.43 -1386.5,1418.49 -2019.9,1887.05 -176.7,130.7 -329.3,243.7 -429,326.8 -276.7,231.1 -685.5,907.2 -733.3,1575.8 -28.2,393.8 70,718.5 291.7,965.1 689.3,766.5 1472.1,313.6 1479.9,309 l -12.3,-20.6 c -7.7,4.5 -774.9,446.7 -1449.8,-304.4 -217.2,-241.6 -313.3,-560.4 -285.6,-947.4 47.4,-662 451.4,-1330.7 724.8,-1559 99.1,-82.8 251.5,-195.5 427.9,-326 634.9,-469.69 1594.4,-1179.46 2026.1,-1893.96"
         style="fill:#82b378;fill-opacity:1;fill-rule:nonzero;stroke:none"
         id="path214" /><path
         d="m 14870.6,9834.95 c 0,0 314.8,262.15 690.2,136.04 0,0 -194.7,-259.95 -690.2,-136.04"
         style="fill:#82b378;fill-opacity:1;fill-rule:nonzero;stroke:none"
         id="path216" /><path
         d="m 15234.1,9534.18 c 0,0 357.6,199.92 703.5,7.08 0,0 -239.1,-219.8 -703.5,-7.08"
         style="fill:#82b378;fill-opacity:1;fill-rule:nonzero;stroke:none"
         id="path218" /><path
         d="m 15675,9122.2 c 0,0 332.1,88.28 573.2,-140.29 0,0 -240,-129.01 -573.2,140.29"
         style="fill:#82b378;fill-opacity:1;fill-rule:nonzero;stroke:none"
         id="path220" /><path
         d="m 15982.7,8802.92 c 0,0 343.7,-4.22 514.5,-289.15 0,0 -265.8,-59.8 -514.5,289.15"
         style="fill:#82b378;fill-opacity:1;fill-rule:nonzero;stroke:none"
         id="path222" /><path
         d="m 16169.7,8533.52 c 0,0 297.7,-171.92 307.2,-504.02 0,0 -261.1,78 -307.2,504.02"
         style="fill:#82b378;fill-opacity:1;fill-rule:nonzero;stroke:none"
         id="path224" /><path
         d="m 15980.8,8801.04 c 0,0 171.7,-297.77 13.8,-590.04 0,0 -187,198.13 -13.8,590.04"
         style="fill:#82b378;fill-opacity:1;fill-rule:nonzero;stroke:none"
         id="path226" /><path
         d="m 15675,9122.2 c 0,0 171.6,-297.77 13.7,-590.03 0,0 -187,198.13 -13.7,590.03"
         style="fill:#82b378;fill-opacity:1;fill-rule:nonzero;stroke:none"
         id="path228" /><path
         d="m 15220.9,9534.11 c 0,0 218.1,-265.66 110.1,-579.83 0,0 -216.9,164.88 -110.1,579.83"
         style="fill:#82b378;fill-opacity:1;fill-rule:nonzero;stroke:none"
         id="path230" /><path
         d="m 14871.5,9834.06 c 0,0 253.2,-308.49 127.8,-673.32 0,0 -251.9,191.48 -127.8,673.32"
         style="fill:#82b378;fill-opacity:1;fill-rule:nonzero;stroke:none"
         id="path232" /><path
         d="m 14361.2,10205.3 c 0,0 264.9,312.6 656.4,253.2 0,0 -146.9,-289.7 -656.4,-253.2"
         style="fill:#82b378;fill-opacity:1;fill-rule:nonzero;stroke:none"
         id="path234" /><path
         d="m 14362.3,10204.6 c 0,0 302.7,-260.14 242.2,-641.13 0,0 -281.2,145.07 -242.2,641.13"
         style="fill:#82b378;fill-opacity:1;fill-rule:nonzero;stroke:none"
         id="path236" /><path
         d="m 13761.8,10668.1 c 0,0 303.9,274.7 684.1,163.9 0,0 -184,-267.6 -684.1,-163.9"
         style="fill:#82b378;fill-opacity:1;fill-rule:nonzero;stroke:none"
         id="path238" /><path
         d="m 13762.7,10667.2 c 0,0 265.6,-298 155.1,-667.57 0,0 -259.5,181.07 -155.1,667.57"
         style="fill:#82b378;fill-opacity:1;fill-rule:nonzero;stroke:none"
         id="path240" /><path
         d="m 13339,11253.7 c 0,0 386,137.3 694.8,-110.6 0,0 -272.5,-176.8 -694.8,110.6"
         style="fill:#82b378;fill-opacity:1;fill-rule:nonzero;stroke:none"
         id="path242" /><path
         d="m 13339.6,11252.5 c 0,0 131.1,-376.9 -112.5,-676 0,0 -170.3,266.6 112.5,676"
         style="fill:#82b378;fill-opacity:1;fill-rule:nonzero;stroke:none"
         id="path244" /><path
         d="m 13085.9,11917.3 c 0,0 503.7,52 801.9,-336 0,0 -378.9,-132.5 -801.9,336"
         style="fill:#82b378;fill-opacity:1;fill-rule:nonzero;stroke:none"
         id="path246" /><path
         d="m 13086.2,11915.7 c 0,0 47.3,-490.9 -332.8,-778.8 0,0 -126.5,370 332.8,778.8"
         style="fill:#82b378;fill-opacity:1;fill-rule:nonzero;stroke:none"
         id="path248" /><path
         d="m 13062.9,12634.8 c 0,0 568.8,-22.1 839,-501.4 0,0 -442.7,-87.3 -839,501.4"
         style="fill:#82b378;fill-opacity:1;fill-rule:nonzero;stroke:none"
         id="path250" /><path
         d="m 13063,12633 c 0,0 -25.5,-554 -494.2,-814 0,0 -82,431.9 494.2,814"
         style="fill:#82b378;fill-opacity:1;fill-rule:nonzero;stroke:none"
         id="path252" /><path
         d="m 13401.4,13239.6 c 0,0 517.9,-236.1 586.2,-782.1 0,0 -442.7,87.1 -586.2,782.1"
         style="fill:#82b378;fill-opacity:1;fill-rule:nonzero;stroke:none"
         id="path254" /><path
         d="m 13400.8,13238 c 0,0 -233.6,-503 -765.9,-565.9 0,0 87.8,430.8 765.9,565.9"
         style="fill:#82b378;fill-opacity:1;fill-rule:nonzero;stroke:none"
         id="path256" /><path
         d="m 14391.7,13606.3 c 0,0 -31.1,-478.1 -453.9,-669.2 0,0 -66.8,380.2 453.9,669.2"
         style="fill:#82b378;fill-opacity:1;fill-rule:nonzero;stroke:none"
         id="path258" /><path
         d="m 14390.2,13606.4 c 0,0 -481.8,64 -698.4,479.3 0,0 377.7,36 698.4,-479.3"
         style="fill:#82b378;fill-opacity:1;fill-rule:nonzero;stroke:none"
         id="path260" /><path
         d="m 13305.5,12637.4 c -54.2,-44.7 -282.5,-94.1 -295.2,-78.6 -12.8,15.4 79.2,230.2 133.4,274.8 54.2,44.8 134.3,37 179,-17.2 44.7,-54.1 37,-134.3 -17.2,-179"
         style="fill:#f3f8ff;fill-opacity:1;fill-rule:nonzero;stroke:none"
         id="path262" /><path
         d="m 13005,12871.2 c 32.6,-62.2 34,-295.8 16.2,-305.1 -17.8,-9.3 -209,124.8 -241.6,187.1 -32.6,62.2 -8.5,139.1 53.7,171.7 62.2,32.5 139.1,8.5 171.7,-53.7"
         style="fill:#f3f8ff;fill-opacity:1;fill-rule:nonzero;stroke:none"
         id="path264" /><path
         d="m 12719.1,12668.6 c 69.9,7.6 287.8,-76.5 290,-96.5 2.1,-19.9 -192.7,-148.8 -262.5,-156.4 -69.9,-7.6 -132.6,42.9 -140.2,112.7 -7.6,69.9 42.9,132.6 112.7,140.2"
         style="fill:#f3f8ff;fill-opacity:1;fill-rule:nonzero;stroke:none"
         id="path266" /><path
         d="m 12823.5,12342.6 c 17.7,68 173.6,241.9 193,236.9 19.4,-5.1 70.9,-232.9 53.2,-300.9 -17.7,-68 -87.1,-108.8 -155.1,-91.1 -68,17.7 -108.8,87.1 -91.1,155.1"
         style="fill:#f3f8ff;fill-opacity:1;fill-rule:nonzero;stroke:none"
         id="path268" /><path
         d="m 13168,12302.9 c -56.3,42 -158.4,252.1 -146.5,268.2 12,16 242.5,-22.3 298.8,-64.3 56.2,-42.1 67.8,-121.8 25.8,-178.1 -42.1,-56.3 -121.8,-67.8 -178.1,-25.8"
         style="fill:#f3f8ff;fill-opacity:1;fill-rule:nonzero;stroke:none"
         id="path270" /><path
         d="m 13063.4,12571.1 c 0,23.1 -18.7,41.9 -41.9,41.9 -23.1,0 -41.8,-18.8 -41.8,-41.9 0,-23.2 18.7,-41.9 41.8,-41.9 23.2,0 41.9,18.7 41.9,41.9"
         style="fill:#f99746;fill-opacity:1;fill-rule:nonzero;stroke:none"
         id="path272" /><path
         d="m 18511.1,10691.3 c -87.6,-72.3 -456.9,-152.2 -477.6,-127.2 -20.6,25 128.1,372.3 215.8,444.6 87.7,72.3 217.3,59.9 289.6,-27.8 72.3,-87.6 59.9,-217.3 -27.8,-289.6"
         style="fill:#f3f8ff;fill-opacity:1;fill-rule:nonzero;stroke:none"
         id="path274" /><path
         d="m 18025,11069.5 c 52.7,-100.7 54.9,-478.5 26.2,-493.6 -28.7,-15 -338,202 -390.8,302.7 -52.7,100.6 -13.8,224.9 86.8,277.7 100.7,52.7 225,13.8 277.8,-86.8"
         style="fill:#f3f8ff;fill-opacity:1;fill-rule:nonzero;stroke:none"
         id="path276" /><path
         d="m 17562.6,10741.8 c 113,12.2 465.4,-123.9 469,-156.1 3.4,-32.2 -311.7,-240.8 -424.6,-253 -113,-12.3 -214.5,69.4 -226.8,182.3 -12.2,113 69.4,214.5 182.4,226.8"
         style="fill:#f3f8ff;fill-opacity:1;fill-rule:nonzero;stroke:none"
         id="path278" /><path
         d="m 17731.4,10214.4 c 28.6,110 280.8,391.4 312.2,383.2 31.4,-8.2 114.6,-376.7 86,-486.7 -28.6,-110 -140.9,-175.94 -250.9,-147.36 -109.9,28.6 -175.9,140.96 -147.3,250.86"
         style="fill:#f3f8ff;fill-opacity:1;fill-rule:nonzero;stroke:none"
         id="path280" /><path
         d="m 18288.7,10150.3 c -91,68 -256.4,407.7 -237,433.7 19.5,26 392.2,-36.1 483.2,-104 91.1,-68 109.7,-196.9 41.8,-288 -68,-91 -197,-109.7 -288,-41.7"
         style="fill:#f3f8ff;fill-opacity:1;fill-rule:nonzero;stroke:none"
         id="path282" /><path
         d="m 18119.5,10584 c 0,37.4 -30.3,67.8 -67.8,67.8 -37.4,0 -67.7,-30.4 -67.7,-67.8 0,-37.4 30.3,-67.7 67.7,-67.7 37.5,0 67.8,30.3 67.8,67.7"
         style="fill:#f99746;fill-opacity:1;fill-rule:nonzero;stroke:none"
         id="path284" /><path
         d="m 15396.2,13696 c -64.8,-53.4 -337.4,-112.4 -352.6,-93.9 -15.3,18.4 94.6,274.9 159.3,328.2 64.7,53.4 160.4,44.2 213.8,-20.5 53.4,-64.7 44.2,-160.4 -20.5,-213.8"
         style="fill:#f3f8ff;fill-opacity:1;fill-rule:nonzero;stroke:none"
         id="path286" /><path
         d="m 15037.2,13975.2 c 39,-74.3 40.6,-353.3 19.4,-364.4 -21.2,-11.1 -249.6,149.1 -288.5,223.4 -38.9,74.3 -10.2,166.1 64.1,205.1 74.3,38.9 166.1,10.2 205,-64.1"
         style="fill:#f3f8ff;fill-opacity:1;fill-rule:nonzero;stroke:none"
         id="path288" /><path
         d="m 14695.9,13733.2 c 83.4,9.1 343.6,-91.4 346.2,-115.2 2.6,-23.8 -230,-177.7 -313.4,-186.8 -83.4,-9 -158.4,51.3 -167.4,134.7 -9.1,83.4 51.2,158.3 134.6,167.3"
         style="fill:#f3f8ff;fill-opacity:1;fill-rule:nonzero;stroke:none"
         id="path290" /><path
         d="m 14820.5,13343.9 c 21.1,81.2 207.3,288.9 230.5,282.9 23.2,-6 84.6,-278.1 63.5,-359.3 -21.1,-81.2 -104,-129.9 -185.2,-108.8 -81.2,21.1 -129.9,104 -108.8,185.2"
         style="fill:#f3f8ff;fill-opacity:1;fill-rule:nonzero;stroke:none"
         id="path292" /><path
         d="m 15232,13296.6 c -67.3,50.2 -189.3,301 -175,320.2 14.3,19.2 289.5,-26.6 356.7,-76.8 67.2,-50.2 81,-145.4 30.8,-212.6 -50.2,-67.2 -145.3,-81 -212.5,-30.8"
         style="fill:#f3f8ff;fill-opacity:1;fill-rule:nonzero;stroke:none"
         id="path294" /><path
         d="m 15107,13616.8 c 0,27.6 -22.4,50 -50,50 -27.6,0 -50,-22.4 -50,-50 0,-27.6 22.4,-50 50,-50 27.6,0 50,22.4 50,50"
         style="fill:#f99746;fill-opacity:1;fill-rule:nonzero;stroke:none"
         id="path296" /><path
         d="m 14980.5,15496.7 c -64.7,-53.4 -337.3,-112.4 -352.6,-93.9 -15.2,18.4 94.6,274.9 159.3,328.2 64.7,53.4 160.5,44.2 213.9,-20.5 53.3,-64.7 44.1,-160.4 -20.6,-213.8"
         style="fill:#f3f8ff;fill-opacity:1;fill-rule:nonzero;stroke:none"
         id="path298" /><path
         d="m 14621.6,15775.9 c 38.9,-74.3 40.6,-353.3 19.4,-364.4 -21.2,-11.1 -249.6,149.1 -288.5,223.4 -38.9,74.3 -10.2,166.1 64.1,205.1 74.3,38.9 166.1,10.2 205,-64.1"
         style="fill:#f3f8ff;fill-opacity:1;fill-rule:nonzero;stroke:none"
         id="path300" /><path
         d="m 14280.3,15533.9 c 83.4,9.1 343.6,-91.4 346.2,-115.2 2.6,-23.8 -230.1,-177.7 -313.5,-186.8 -83.4,-9 -158.3,51.3 -167.4,134.7 -9,83.3 51.2,158.3 134.7,167.3"
         style="fill:#f3f8ff;fill-opacity:1;fill-rule:nonzero;stroke:none"
         id="path302" /><path
         d="m 14404.9,15144.6 c 21.1,81.2 207.3,288.9 230.5,282.9 23.1,-6 84.6,-278.1 63.5,-359.3 -21.1,-81.2 -104.1,-129.9 -185.2,-108.8 -81.2,21.1 -129.9,104 -108.8,185.2"
         style="fill:#f3f8ff;fill-opacity:1;fill-rule:nonzero;stroke:none"
         id="path304" /><path
         d="m 14816.3,15097.3 c -67.2,50.1 -189.2,301 -174.9,320.2 14.3,19.2 289.5,-26.6 356.7,-76.8 67.2,-50.2 81,-145.4 30.8,-212.6 -50.2,-67.2 -145.4,-81 -212.6,-30.8"
         style="fill:#f3f8ff;fill-opacity:1;fill-rule:nonzero;stroke:none"
         id="path306" /><path
         d="m 14691.4,15417.5 c 0,27.6 -22.4,50 -50,50 -27.6,0 -50,-22.4 -50,-50 0,-27.6 22.4,-50 50,-50 27.6,0 50,22.4 50,50"
         style="fill:#f99746;fill-opacity:1;fill-rule:nonzero;stroke:none"
         id="path308" /><path
         d="m 17623.5,13897.8 c -82.7,-68.2 -431.1,-143.6 -450.6,-120 -19.4,23.6 120.9,351.3 203.6,419.5 82.7,68.3 205.1,56.5 273.3,-26.2 68.2,-82.7 56.4,-205 -26.3,-273.3"
         style="fill:#f3f8ff;fill-opacity:1;fill-rule:nonzero;stroke:none"
         id="path310" /><path
         d="m 17164.8,14254.6 c 49.8,-94.9 51.9,-451.4 24.8,-465.6 -27.1,-14.2 -318.9,190.5 -368.7,285.5 -49.7,95 -13,212.3 81.9,262 95,49.8 212.3,13.1 262,-81.9"
         style="fill:#f3f8ff;fill-opacity:1;fill-rule:nonzero;stroke:none"
         id="path312" /><path
         d="m 16728.6,13945.5 c 106.6,11.5 439.2,-116.9 442.5,-147.3 3.3,-30.4 -294,-227.1 -400.6,-238.7 -106.6,-11.6 -202.4,65.5 -213.9,172 -11.6,106.6 65.5,202.4 172,214"
         style="fill:#f3f8ff;fill-opacity:1;fill-rule:nonzero;stroke:none"
         id="path314" /><path
         d="m 16887.9,13448 c 26.9,103.7 264.9,369.2 294.5,361.4 29.6,-7.6 108.2,-355.4 81.2,-459.1 -27,-103.8 -133,-166 -236.7,-139 -103.8,26.9 -166,132.9 -139,236.7"
         style="fill:#f3f8ff;fill-opacity:1;fill-rule:nonzero;stroke:none"
         id="path316" /><path
         d="m 17413.7,13387.4 c -85.9,64.2 -241.9,384.7 -223.6,409.2 18.3,24.5 370,-34 455.9,-98.1 85.9,-64.2 103.5,-185.8 39.4,-271.7 -64.2,-85.9 -185.8,-103.5 -271.7,-39.4"
         style="fill:#f3f8ff;fill-opacity:1;fill-rule:nonzero;stroke:none"
         id="path318" /><path
         d="m 17254.1,13796.6 c 0,35.3 -28.7,64 -64,64 -35.3,0 -63.9,-28.7 -63.9,-64 0,-35.3 28.6,-63.9 63.9,-63.9 35.3,0 64,28.6 64,63.9"
         style="fill:#f99746;fill-opacity:1;fill-rule:nonzero;stroke:none"
         id="path320" /><path
         d="m 17204.2,11917 c 0,0 -306.1,-591.5 25.3,-1143.3 0,0 344.6,400 -25.3,1143.3"
         style="fill:#82b378;fill-opacity:1;fill-rule:nonzero;stroke:none"
         id="path322" /><path
         d="m 17532.7,11606.4 c 0,0 596.2,-296.7 1142.7,43.4 0,0 -405.3,338.2 -1142.7,-43.4"
         style="fill:#82b378;fill-opacity:1;fill-rule:nonzero;stroke:none"
         id="path324" /><path
         d="m 15254.8,14665.2 c 0,0 194.4,262.9 56.8,578.5 0,0 -202.6,-162.1 -56.8,-578.5"
         style="fill:#82b378;fill-opacity:1;fill-rule:nonzero;stroke:none"
         id="path326" /><path
         d="m 7694.74,12959.5 c 0,0 685.01,-549.3 1163.89,-365.8 174.88,67.1 337.52,193.1 468.32,332 100.73,106.9 182.5,221.5 236.38,321.6 67.62,126.2 90.54,230.2 50.69,268.9 -111.42,109.9 -1919.28,-556.7 -1919.28,-556.7"
         style="fill:#f6a56e;fill-opacity:1;fill-rule:nonzero;stroke:none"
         id="path328" /><path
         d="m 9326.95,12925.7 c 100.73,106.9 182.5,221.5 236.38,321.6 -164.29,-42.7 -766.47,-209.5 -983.83,-378.8 -171.03,-132.9 371.13,-50.2 747.45,57.2"
         style="fill:#f6a56e;fill-opacity:1;fill-rule:nonzero;stroke:none"
         id="path330" /><path
         d="m 3064.26,4940.4 c 208.14,225.3 67.1,-128.3 550.24,465.1 121.41,148.2 516.71,452.6 623.07,593.9 0,0 0.54,0.6 1.14,0.7 -0.07,0.6 0.21,0.9 0.74,1.6 17.9,23.9 35.53,47.4 52.56,70.9 70.12,95 134.87,186.2 191.97,272.1 100.82,151.3 164.39,342.5 201.12,554.1 40.66,235.8 47.83,498 35.01,760.6 -10.27,203.2 -32.35,406.7 -60.08,600.1 -89.63,620.42 -239.49,1125.65 -239.49,1125.65 0,0 -0.54,-0.67 -1.62,-1.98 -25.81,-35.55 -463.61,-644.25 -663.87,-849.72 -246,-252.35 -1813.59,-1251.85 -1813.59,-1251.85 0,0 1067.59,-2400.5 1122.8,-2341.2"
         style="fill:#ffb27d;fill-opacity:1;fill-rule:nonzero;stroke:none"
         id="path332" /><path
         d="m 4133.88,8811.93 c 0,0 -205.97,-839.63 44.44,-1078.23 250.67,-238.3 1406.33,10.2 2420.9,700.12 1014.84,690.2 599.34,3330.98 599.34,3330.98 89.7,-71.2 771.81,-11.2 1388.97,50.9 531.46,53.5 1014.99,108.3 1031.52,82.1 23.7,-37.5 575.15,-351.5 1078.95,-613.3 260.1,-134.7 507.2,-255.7 662.9,-317.6 299.9,-119 537.3,-5.2 665.2,87.1 66.9,48.1 103.8,90.5 103.8,90.5 0,0 -287.7,269.7 -673.5,597.7 -505.1,429.6 -1178.6,958.1 -1593.39,1108.9 -731.58,266.6 -2662.86,91.9 -3237.25,-4.7 -574.39,-96.5 -2491.88,-4034.47 -2491.88,-4034.47"
         style="fill:#ffb27d;fill-opacity:1;fill-rule:nonzero;stroke:none"
         id="path334" /><path
         d="m 7234.34,12295.8 c -57.88,-41.8 594.41,-253.4 1353.19,-480.1 531.46,53.5 1014.99,108.3 1031.52,82.1 23.7,-37.5 575.15,-351.5 1078.95,-613.3 -138.6,215.9 -501.4,763.5 -1261.09,995.8 -950.97,291.1 -2068.46,112.1 -2202.57,15.5"
         style="fill:#f6a56e;fill-opacity:1;fill-rule:nonzero;stroke:none"
         id="path336" /><path
         d="M 7112.37,12909.7 5098.23,8830.21 c 0,0 3041.98,-579.51 2199.22,396.73 -197.72,229.05 -50.87,466.36 31.68,612.24 129.8,229.42 257.9,439.62 370.84,617.62 227.32,358.4 608.18,587.6 1031.03,624 500.34,43.1 1122.49,52.9 1377.6,-306.8 272,-383.3 405.8,-751.3 823.5,-778.31 67.3,-4.34 243.7,64.61 243.7,64.61 l -598.3,1117.7 c -164.1,303 -329.6,496.4 -591.3,599.5 l -2873.83,1132.2"
         style="fill:#ffb27d;fill-opacity:1;fill-rule:nonzero;stroke:none"
         id="path338" /><path
         d="m 8226.94,11225.4 c 0,0 -1232.67,1485.4 -1525.6,1522.4 -292.93,37 -942.79,48.9 -1321.31,-390.1 -378.52,-439.1 -432.24,-1210.7 -432.24,-1210.7 0,0 389.99,-22.5 1101.2,437.9 711.22,460.5 683.69,969.5 767.8,947 84.1,-22.6 1295.71,-1345.1 1295.71,-1345.1 l 114.44,38.6"
         style="fill:#a8d29f;fill-opacity:1;fill-rule:nonzero;stroke:none"
         id="path340" /><path
         d="m 10149,11874.7 c 0,0 -697.76,2501.2 -98.1,3073.8 599.7,572.6 1343.8,315.2 1605.3,-89.9 261.5,-405.1 570.7,-1420.7 838.4,-1676.7 0,0 -1083.6,-280.3 -1437.6,432.1 -354,712.4 -928.4,1138.2 -1003.3,1057.9 -74.81,-80.3 -343.68,-994.8 227.5,-2752.4 l -132.2,-44.8"
         style="fill:#82b378;fill-opacity:1;fill-rule:nonzero;stroke:none"
         id="path342" /><path
         d="m 8847.26,11435.1 c 0,0 -1407.51,2824.5 -2231.78,3017.3 -824.24,192.7 -1973.41,-195.5 -2014.08,-209.3 -40.68,-13.7 558.33,-512.3 1388.66,-723.1 830.36,-210.8 1395.49,65.9 1467.73,-18.1 683.58,-794.7 1226.79,-2121.9 1226.79,-2121.9 l 162.68,55.1"
         style="fill:#a8d29f;fill-opacity:1;fill-rule:nonzero;stroke:none"
         id="path344" /><path
         d="m 9128.27,11530 c 0,0 -660.24,1899.5 -1173.61,1876.3 -513.35,-23.2 -1021.16,-776.8 -920.69,-1488.6 0,0 38.57,-482 -57.38,-690.8 0,0 388.75,-33.6 720.64,157.8 331.88,191.5 496.17,694.5 399.68,1047.2 -96.47,352.6 -121.38,862.3 -50.52,853.8 70.85,-8.5 215.7,-152.2 371.21,-411.3 155.51,-259 587.27,-1386.1 587.27,-1386.1 l 123.4,41.7"
         style="fill:#82b378;fill-opacity:1;fill-rule:nonzero;stroke:none"
         id="path346" /><path
         d="m 9386.28,11617 c 0,0 -1019.68,2112.7 -1038.79,2638.7 -19.12,526.1 534.98,1166.5 1036.59,1358.7 0,0 155.3,-627.4 153.66,-1058.5 -1.65,-431.1 -866.62,-822.1 -826.33,-1008.4 40.27,-186.3 781.61,-1894.3 781.61,-1894.3 l -106.74,-36.2"
         style="fill:#a8d29f;fill-opacity:1;fill-rule:nonzero;stroke:none"
         id="path348" /><path
         d="m 9706.57,11725.4 c 0,0 -390.63,716.1 -433.42,905.6 -42.78,189.5 56.28,562.8 181.7,707.2 0,0 131.59,-427.2 262.03,-574.3 130.42,-147.1 -145.01,-652.3 -119.36,-703.2 25.67,-50.8 173.89,-313.4 173.89,-313.4 l -64.84,-21.9"
         style="fill:#82b378;fill-opacity:1;fill-rule:nonzero;stroke:none"
         id="path350" /><path
         d="m 10644.5,9101.03 -1302.7,-430.5 c -763.18,-252.2 -1586.31,162.03 -1838.5,925.2 l -454.99,1376.77 c 0,0 45.43,118 527.33,174.3 233.85,27.3 698.63,357.2 919.11,439.8 560.43,209.8 962.26,-45.4 1487.8,355.6 602.85,460 1132.15,374.1 1132.15,374.1 l 455,-1376.8 c 252.2,-763.1 -162,-1586.27 -925.2,-1838.47"
         style="fill:#163560;fill-opacity:1;fill-rule:nonzero;stroke:none"
         id="path352" /><path
         d="m 7048.31,10972.5 c 0,0 -79.56,-136.2 0,-272.1 0,0 -24.63,-215 147.55,-349.9 0,0 -18.14,-633.28 208.42,-823.59 226.54,-190.29 240.13,-231.06 240.13,-231.06 0,0 99.67,-321.7 253.72,-416.86 154.06,-95.14 242.32,-77.02 242.32,-77.02 0,0 188.12,-231.07 446.39,-244.66 258.25,-13.59 308.01,0 308.01,0 0,0 251.55,-56.64 537,58.9 285.44,115.53 327.79,192.41 327.79,192.41 0,0 209.11,-12.31 351.86,48.86 142.7,61.16 183.5,101.94 183.5,101.94 0,0 248,-27.18 475.7,64.56 227.7,91.75 247,262.89 247,262.89 0,0 233.3,22.56 319.4,158.49 86.1,135.93 50.1,213.03 50.1,213.03 0,0 253.4,218.53 256.8,347.71 3.4,129.1 54.4,431.5 47.6,564.1 -6.8,132.5 -146.1,442.5 -146.1,442.5 0,0 -71.4,531 -173.3,602.4 0,0 -59.4,633.4 -257.5,701.2 l -2278.78,-1388 -1787.61,44.2"
         style="fill:#163560;fill-opacity:1;fill-rule:nonzero;stroke:none"
         id="path354" /><path
         d="m 11270.7,10163.9 c -1.3,2.4 -140,249.4 -635.5,346.5 -266.5,52.2 -422.1,171.9 -505.6,263.2 -91.1,99.5 -118.3,185.8 -119.5,189.5 l 26,8 c 1,-3.4 110.1,-337.2 604.3,-434.1 509.5,-99.7 648.6,-349.7 654.3,-360.3 l -24,-12.8"
         style="fill:#bdd1f9;fill-opacity:1;fill-rule:nonzero;stroke:none"
         id="path356" /><path
         d="m 9549.75,8316.2 -24.84,11 c 225.04,505.23 2.04,1089.26 -0.24,1095.09 l 25.33,9.9 c 2.31,-5.95 229.49,-600.28 -0.25,-1115.99"
         style="fill:#bdd1f9;fill-opacity:1;fill-rule:nonzero;stroke:none"
         id="path358" /><path
         d="m 10582,9187.53 c -10.4,2.68 -254.4,69.99 -313.8,446.01 -56.8,360.12 -248.8,451.06 -250.7,451.86 l 11.2,24.8 c 8.5,-3.8 207.3,-97.9 266.4,-472.43 29.5,-187.09 107.8,-292.37 168.3,-347.73 65.5,-59.91 124.9,-76.05 125.4,-76.19 l -6.8,-26.32"
         style="fill:#bdd1f9;fill-opacity:1;fill-rule:nonzero;stroke:none"
         id="path360" /><path
         d="m 11379.5,9266.7 c -167.3,308.13 -585.3,418.15 -589.5,419.22 l 6.7,26.35 c 4.4,-1.12 433.7,-113.9 606.7,-432.59 l -23.9,-12.98"
         style="fill:#bdd1f9;fill-opacity:1;fill-rule:nonzero;stroke:none"
         id="path362" /><path
         d="m 11816.6,10612.8 c -84,0 -182.6,27.1 -294,81.1 -105.3,50.9 -181.3,106.5 -184.5,108.8 l 16.1,22 c 3,-2.3 305.9,-222.6 523.9,-178.9 l 5.3,-26.7 c -21.1,-4.2 -43.4,-6.3 -66.8,-6.3"
         style="fill:#bdd1f9;fill-opacity:1;fill-rule:nonzero;stroke:none"
         id="path364" /><path
         d="M 4095.75,8110.1 4081,7924 2401.79,6146.2 3316.74,5097.5 c 0,0 1750.02,1852 2461.09,1600 710.74,-251.8 2178.11,783.3 2927.52,1765.72 475.91,623.53 832.35,912.3 912.93,1120.94 46.41,120.51 1.65,214.39 -164.82,330.35 -60.83,42.66 -130.88,59.3 -207.46,56.51 -495.13,-17.24 -1278.48,-766.25 -1598.89,-837.06 -263.95,-58.34 -566.01,330.78 -909.34,241.51 C 6055.15,9199.16 5282.15,8423.69 4660.03,8259.5 4321.56,8170.1 4095.75,8110.1 4095.75,8110.1"
         style="fill:#ffb27d;fill-opacity:1;fill-rule:nonzero;stroke:none"
         id="path366" /><path
         d="m 5045.82,6064.2 -795.3,-666 -0.1,-0.1 -3.06,-2.6 -0.09,-0.1 -1.05,-0.9 -2395.85,-2069.8 c -644.58,827 -837.09,2072.4 -327.21,3862.9 0,0 99.6,215.6 235.54,559.8 l 323.48,124.9 0.1,-0.1 874.29,318.4 2089.25,-2126.4"
         style="fill:#ef873a;fill-opacity:1;fill-rule:nonzero;stroke:none"
         id="path368" /><path
         d="m 4250.99,5392.6 c 0,0 -1.53,0.6 -4.9,1.9 -76.25,29.7 -1019.41,408 -1751.35,1143.6 l 250.06,328.8 -430.61,-93.6 c 0,0 -267.9,529.3 -257.88,1089.8 l 25.84,9.2 335.66,122.1 0.47,0.2 124.69,45.7 0.64,0.1 460.61,101.8 0.17,-0.2 100.12,22.2 961.95,-990.4 13.07,-126.3 170.92,-1649.5 0.54,-5.4"
         style="fill:#e27227;fill-opacity:1;fill-rule:nonzero;stroke:none"
         id="path370" /><path
         d="m 2038.13,7998 c 0,0 91.57,-356.5 513.55,-931.2 l 962.74,327.4 -630.19,-741 c 392.33,-449.4 959.95,-984.5 1776.56,-1562.7 0,0 462.71,745.8 673.21,1570.8 0,0 -907.46,773.8 -1644.37,1812.7 l -1651.5,-476"
         style="fill:#eef5ff;fill-opacity:1;fill-rule:nonzero;stroke:none"
         id="path372" /><path
         d="m 3431.39,6573.8 c 46.5,20.2 67.84,74.3 47.67,120.8 -20.17,46.5 -74.21,67.8 -120.71,47.6 -46.5,-20.1 -67.84,-74.2 -47.67,-120.7 20.17,-46.5 74.21,-67.8 120.71,-47.7"
         style="fill:#f99746;fill-opacity:1;fill-rule:nonzero;stroke:none"
         id="path374" /><path
         d="m 14173,3207 c 79.6,315.6 380.3,537.4 705.8,536.7 325.5,-0.7 630.7,-278.8 652.2,-603.6 27.9,-422.9 -265.2,-644.3 -590.7,-643.6 -107.3,0.2 -251.4,61.1 -337.9,111.4 l -165.2,-179.8 c -135.5,55.8 -361.1,394.8 -264.2,778.9"
         style="fill:#8c9df4;fill-opacity:1;fill-rule:nonzero;stroke:none"
         id="path376" /><path
         d="m 14597.6,2603.6 c -2.8,3.1 -280.2,314.9 -84.1,685.8 112.4,212.7 295.3,241.9 393.7,240.9 165.1,-2.2 328.6,-92.2 388.9,-213.9 55.5,-112.1 63.6,-227.9 22.8,-325.9 -36.1,-87 -106.3,-151.7 -197.6,-182.3 -96.4,-32.3 -191.3,-21.1 -267.3,31.5 -69.9,48.3 -113.4,126.9 -116.5,210 -2.8,75 28.9,143.5 87,187.9 61.6,47.1 143.3,61.2 218.6,37.8 68.5,-21.3 110.7,-81.9 112.9,-162.1 1.8,-62.9 -23.4,-118.4 -59.8,-132 -60.1,-22.5 -117.7,-17.7 -146.7,12.1 -17.1,17.7 -21,41.3 -10.8,66.4 l 11.9,-4.8 c -8.2,-20.1 -5.3,-38.8 8.1,-52.6 20.9,-21.5 70.1,-32.6 133,-9.1 31,11.5 53.1,63 51.5,119.7 -0.7,27.8 -10.5,121.1 -103.9,150.2 -71.4,22.1 -148.7,8.8 -207,-35.8 -55.5,-42.5 -84.6,-105.4 -82,-177.2 2.9,-79.2 44.4,-153.9 111,-200 72.5,-50.2 163.4,-60.8 255.9,-29.9 87.7,29.4 155.2,91.6 189.9,175.1 39.3,94.6 31.3,206.6 -22.5,315.3 -58.2,117.7 -217,204.7 -377.5,206.8 -1.7,0 -3.3,0 -5,0 -96.9,0.2 -270,-31 -377.3,-234.1 -191.8,-362.8 79.6,-668.2 82.3,-671.2 l -9.5,-8.6"
         style="fill:#163560;fill-opacity:1;fill-rule:nonzero;stroke:none"
         id="path378" /><path
         d="m 16174.7,3025.7 c 0,0 -324.3,-257.8 -207.9,-548.8 116.4,-291.1 565.4,141.3 590.4,274.4 24.9,133 -232.8,442.9 -382.5,274.4"
         style="fill:#163560;fill-opacity:1;fill-rule:nonzero;stroke:none"
         id="path380" /><path
         d="m 16228.4,3743.4 c 0,0 -416.3,86.9 -569.6,-196.1 -153.4,-282.9 482.6,-353.6 604.1,-285.9 121.3,67.6 196.8,474.5 -34.5,482"
         style="fill:#8c9df4;fill-opacity:1;fill-rule:nonzero;stroke:none"
         id="path382" /><path
         d="m 14074.6,3555.5 c 0,0 318.2,177.4 156,430.4 -162.3,253 -728.2,-219.4 -594.9,-372.3 133.3,-153 293.3,-187.4 438.9,-58.1"
         style="fill:#8c9df4;fill-opacity:1;fill-rule:nonzero;stroke:none"
         id="path384" /><path
         d="m 13928,4123.2 c 0,0 318.2,177.4 155.9,430.4 -162.3,253 -728.2,-219.3 -594.8,-372.3 133.3,-153 293.3,-187.4 438.9,-58.1"
         style="fill:#6f84dd;fill-opacity:1;fill-rule:nonzero;stroke:none"
         id="path386" /><path
         d="m 15669.7,3955.9 c 0,0 225.4,125.6 110.5,304.8 -115,179.2 -515.8,-155.3 -421.4,-263.7 94.5,-108.3 207.8,-132.7 310.9,-41.1"
         style="fill:#6f84dd;fill-opacity:1;fill-rule:nonzero;stroke:none"
         id="path388" /><path
         d="m 14683.7,4039.3 c 0,0 -31.2,522.5 -274.7,551.9 -243.4,29.4 -132.5,-356.4 -11,-461.6 121.5,-105.2 178.5,-200.8 285.7,-90.3"
         style="fill:#163560;fill-opacity:1;fill-rule:nonzero;stroke:none"
         id="path390" /><path
         d="m 5772.86,3630.8 c 0,0 318.2,177.5 155.94,430.4 -162.27,253 -728.17,-219.3 -594.84,-372.3 133.31,-152.9 293.32,-187.4 438.9,-58.1"
         style="fill:#8c9df4;fill-opacity:1;fill-rule:nonzero;stroke:none"
         id="path392" /><path
         d="m 5626.2,4198.6 c 0,0 318.2,177.4 155.94,430.4 -162.27,252.9 -728.18,-219.4 -594.85,-372.3 133.32,-153 293.33,-187.5 438.91,-58.1"
         style="fill:#6f84dd;fill-opacity:1;fill-rule:nonzero;stroke:none"
         id="path394" /><path
         d="m 6381.88,4114.7 c 0,0 -31.15,522.4 -274.61,551.8 -243.48,29.5 -132.54,-356.4 -11.07,-461.6 121.5,-105.2 178.58,-200.7 285.68,-90.2"
         style="fill:#163560;fill-opacity:1;fill-rule:nonzero;stroke:none"
         id="path396" /></g></g></svg>
