<?xml version="1.0" standalone="no"?><svg xmlns="http://www.w3.org/2000/svg" viewBox="0 0 1440 320"><path fill="#0099ff" fill-opacity="1" d="M0,224L26.7,202.7C53.3,181,107,139,160,117.3C213.3,96,267,96,320,101.3C373.3,107,427,117,480,144C533.3,171,587,213,640,218.7C693.3,224,747,192,800,202.7C853.3,213,907,267,960,256C1013.3,245,1067,171,1120,133.3C1173.3,96,1227,96,1280,101.3C1333.3,107,1387,117,1413,122.7L1440,128L1440,320L1413.3,320C1386.7,320,1333,320,1280,320C1226.7,320,1173,320,1120,320C1066.7,320,1013,320,960,320C906.7,320,853,320,800,320C746.7,320,693,320,640,320C586.7,320,533,320,480,320C426.7,320,373,320,320,320C266.7,320,213,320,160,320C106.7,320,53,320,27,320L0,320Z"></path></svg>