<?xml version="1.0" standalone="no"?><svg xmlns="http://www.w3.org/2000/svg" viewBox="0 0 1440 320"><path fill="#0099ff" fill-opacity="1" d="M0,128L16,112C32,96,64,64,96,58.7C128,53,160,75,192,112C224,149,256,203,288,192C320,181,352,107,384,117.3C416,128,448,224,480,250.7C512,277,544,235,576,224C608,213,640,235,672,256C704,277,736,299,768,293.3C800,288,832,256,864,229.3C896,203,928,181,960,192C992,203,1024,245,1056,261.3C1088,277,1120,267,1152,250.7C1184,235,1216,213,1248,197.3C1280,181,1312,171,1344,192C1376,213,1408,267,1424,293.3L1440,320L1440,320L1424,320C1408,320,1376,320,1344,320C1312,320,1280,320,1248,320C1216,320,1184,320,1152,320C1120,320,1088,320,1056,320C1024,320,992,320,960,320C928,320,896,320,864,320C832,320,800,320,768,320C736,320,704,320,672,320C640,320,608,320,576,320C544,320,512,320,480,320C448,320,416,320,384,320C352,320,320,320,288,320C256,320,224,320,192,320C160,320,128,320,96,320C64,320,32,320,16,320L0,320Z"></path></svg>