<?xml version="1.0" standalone="no"?><svg xmlns="http://www.w3.org/2000/svg" viewBox="0 0 1440 320"><path fill="#0099ff" fill-opacity="1" d="M0,256L26.7,224C53.3,192,107,128,160,96C213.3,64,267,64,320,90.7C373.3,117,427,171,480,165.3C533.3,160,587,96,640,101.3C693.3,107,747,181,800,176C853.3,171,907,85,960,96C1013.3,107,1067,213,1120,218.7C1173.3,224,1227,128,1280,101.3C1333.3,75,1387,117,1413,138.7L1440,160L1440,0L1413.3,0C1386.7,0,1333,0,1280,0C1226.7,0,1173,0,1120,0C1066.7,0,1013,0,960,0C906.7,0,853,0,800,0C746.7,0,693,0,640,0C586.7,0,533,0,480,0C426.7,0,373,0,320,0C266.7,0,213,0,160,0C106.7,0,53,0,27,0L0,0Z"></path></svg>