<?xml version="1.0" standalone="no"?><svg xmlns="http://www.w3.org/2000/svg" viewBox="0 0 1440 320"><path fill="#0099ff" fill-opacity="1" d="M0,128L6.2,138.7C12.3,149,25,171,37,165.3C49.2,160,62,128,74,122.7C86.2,117,98,139,111,144C123.1,149,135,139,148,154.7C160,171,172,213,185,213.3C196.9,213,209,171,222,170.7C233.8,171,246,213,258,208C270.8,203,283,149,295,117.3C307.7,85,320,75,332,101.3C344.6,128,357,192,369,218.7C381.5,245,394,235,406,192C418.5,149,431,75,443,37.3C455.4,0,468,0,480,26.7C492.3,53,505,107,517,138.7C529.2,171,542,181,554,170.7C566.2,160,578,128,591,122.7C603.1,117,615,139,628,165.3C640,192,652,224,665,234.7C676.9,245,689,235,702,224C713.8,213,726,203,738,181.3C750.8,160,763,128,775,112C787.7,96,800,96,812,85.3C824.6,75,837,53,849,85.3C861.5,117,874,203,886,229.3C898.5,256,911,224,923,197.3C935.4,171,948,149,960,165.3C972.3,181,985,235,997,218.7C1009.2,203,1022,117,1034,122.7C1046.2,128,1058,224,1071,256C1083.1,288,1095,256,1108,224C1120,192,1132,160,1145,133.3C1156.9,107,1169,85,1182,96C1193.8,107,1206,149,1218,149.3C1230.8,149,1243,107,1255,117.3C1267.7,128,1280,192,1292,202.7C1304.6,213,1317,171,1329,144C1341.5,117,1354,107,1366,117.3C1378.5,128,1391,160,1403,160C1415.4,160,1428,128,1434,112L1440,96L1440,320L1433.8,320C1427.7,320,1415,320,1403,320C1390.8,320,1378,320,1366,320C1353.8,320,1342,320,1329,320C1316.9,320,1305,320,1292,320C1280,320,1268,320,1255,320C1243.1,320,1231,320,1218,320C1206.2,320,1194,320,1182,320C1169.2,320,1157,320,1145,320C1132.3,320,1120,320,1108,320C1095.4,320,1083,320,1071,320C1058.5,320,1046,320,1034,320C1021.5,320,1009,320,997,320C984.6,320,972,320,960,320C947.7,320,935,320,923,320C910.8,320,898,320,886,320C873.8,320,862,320,849,320C836.9,320,825,320,812,320C800,320,788,320,775,320C763.1,320,751,320,738,320C726.2,320,714,320,702,320C689.2,320,677,320,665,320C652.3,320,640,320,628,320C615.4,320,603,320,591,320C578.5,320,566,320,554,320C541.5,320,529,320,517,320C504.6,320,492,320,480,320C467.7,320,455,320,443,320C430.8,320,418,320,406,320C393.8,320,382,320,369,320C356.9,320,345,320,332,320C320,320,308,320,295,320C283.1,320,271,320,258,320C246.2,320,234,320,222,320C209.2,320,197,320,185,320C172.3,320,160,320,148,320C135.4,320,123,320,111,320C98.5,320,86,320,74,320C61.5,320,49,320,37,320C24.6,320,12,320,6,320L0,320Z"></path></svg>